<svg width="25" height="24" viewBox="0 0 25 24" fill="none" xmlns="http://www.w3.org/2000/svg">
<g clip-path="url(#clip0_1101_5775)">
<path d="M21.3889 2H3.61111C2.99746 2 2.5 2.49746 2.5 3.11111V20.8889C2.5 21.5025 2.99746 22 3.61111 22H21.3889C22.0025 22 22.5 21.5025 22.5 20.8889V3.11111C22.5 2.49746 22.0025 2 21.3889 2Z" fill="#117EB8"/>
<path fill-rule="evenodd" clip-rule="evenodd" d="M6.14975 9.73552H8.8228V18.3361H6.14975V9.73552ZM7.48669 5.46024C8.34141 5.46024 9.03586 6.15468 9.03586 7.00941C9.03586 7.86496 8.34141 8.55968 7.48669 8.55968C7.28071 8.56358 7.07602 8.52638 6.88458 8.45025C6.69315 8.37412 6.51881 8.26059 6.37176 8.1163C6.22471 7.97201 6.1079 7.79985 6.02816 7.60989C5.94842 7.41993 5.90735 7.21598 5.90735 7.00996C5.90735 6.80394 5.94842 6.59999 6.02816 6.41003C6.1079 6.22007 6.22471 6.04791 6.37176 5.90362C6.51881 5.75933 6.69315 5.6458 6.88458 5.56967C7.07602 5.49354 7.28071 5.45634 7.48669 5.46024ZM10.4995 9.73524H13.0634V10.9105H13.0989C13.4559 10.2344 14.3278 9.52163 15.6281 9.52163C18.3347 9.52163 18.8347 11.303 18.8347 13.6188V18.3361H16.1634V14.1536C16.1634 13.1564 16.145 11.8733 14.7745 11.8733C13.3836 11.8733 13.17 12.9597 13.17 14.0816V18.3361H10.4992V9.73552L10.4995 9.73524Z" fill="white"/>
</g>
<defs>
<clipPath id="clip0_1101_5775">
<rect width="24" height="24" fill="white" transform="translate(0.5)"/>
</clipPath>
</defs>
</svg>
