<svg width="200" height="55" viewBox="0 0 200 55" fill="none" xmlns="http://www.w3.org/2000/svg">
<g clip-path="url(#clip0_295_9)">
<path d="M168.037 4.92063V8.29763C168.037 8.48829 167.88 8.64596 167.689 8.64596H166.756C166.565 8.64596 166.408 8.48829 166.408 8.29763V5.18829C166.408 4.26063 165.91 3.65196 165.057 3.65196C164.204 3.65196 163.706 4.26063 163.706 5.18829V8.29763C163.706 8.48829 163.552 8.64596 163.358 8.64596H162.424C162.234 8.64596 162.076 8.48829 162.076 8.29763V2.66196C162.076 2.47129 162.234 2.31363 162.424 2.31363H163.358C163.548 2.31363 163.706 2.46763 163.706 2.66196V3.17896C164.061 2.61796 164.691 2.19263 165.639 2.19263C166.939 2.19263 168.034 2.99563 168.034 4.92063H168.037Z" fill="url(#paint0_linear_295_9)"/>
<path d="M172.318 7.60099V8.23899C172.318 8.37466 172.241 8.49566 172.12 8.55432C171.868 8.67166 171.52 8.71932 171.212 8.71932C170.143 8.71932 169.363 8.19499 169.363 6.89332V3.61899H168.81C168.62 3.61899 168.462 3.46499 168.462 3.27066V2.66199C168.462 2.47132 168.616 2.31366 168.81 2.31366H169.363V1.04499C169.363 0.854322 169.52 0.696655 169.711 0.696655H170.659C170.85 0.696655 171.007 0.854322 171.007 1.04499V2.31732H171.959C172.149 2.31732 172.307 2.47132 172.307 2.66566V3.27432C172.307 3.46499 172.153 3.62266 171.959 3.62266H171.007V6.62932C171.007 6.95932 171.19 7.27466 171.725 7.27466C171.794 7.27466 171.864 7.27099 171.933 7.25999C172.124 7.23799 172.296 7.37732 172.318 7.56799C172.318 7.57899 172.318 7.59366 172.318 7.60466V7.60099Z" fill="url(#paint1_linear_295_9)"/>
<path d="M177.012 2.54096V3.41363C177.012 3.60429 176.858 3.76196 176.668 3.76196H176.602C175.375 3.76196 174.606 4.61263 174.606 5.88129V8.29763C174.606 8.48829 174.452 8.64596 174.258 8.64596H173.325C173.134 8.64596 172.977 8.49196 172.977 8.29763V2.66196C172.977 2.47129 173.131 2.31363 173.325 2.31363H174.258C174.449 2.31363 174.606 2.46763 174.606 2.66196V3.95996C174.826 2.98463 175.445 2.19263 176.587 2.19263H176.679C176.865 2.19996 177.012 2.35396 177.008 2.54096H177.012Z" fill="url(#paint2_linear_295_9)"/>
<path d="M177.122 5.48163C177.122 3.33663 178.799 2.19263 180.454 2.19263C182.109 2.19263 183.786 3.33663 183.786 5.48163C183.786 7.62663 182.094 8.77063 180.454 8.77063C178.814 8.77063 177.122 7.62663 177.122 5.48163ZM182.168 5.48163C182.168 4.34863 181.366 3.66663 180.454 3.66663C179.542 3.66663 178.726 4.34863 178.726 5.48163C178.726 6.61463 179.542 7.29663 180.454 7.29663C181.366 7.29663 182.168 6.61463 182.168 5.48163Z" fill="url(#paint3_linear_295_9)"/>
<path d="M190.996 5.48163C190.996 7.67429 189.429 8.77063 187.957 8.77063C186.825 8.77063 186.097 8.15096 185.939 7.79529H185.903V10.615C185.903 10.8056 185.745 10.9633 185.555 10.9633H184.621C184.431 10.9633 184.273 10.8093 184.273 10.615V2.66196C184.273 2.47129 184.427 2.31363 184.621 2.31363H185.555C185.745 2.31363 185.903 2.46763 185.903 2.66196V3.16796H185.939C186.097 2.81229 186.829 2.19263 187.957 2.19263C189.429 2.19263 190.996 3.28896 190.996 5.48163ZM189.378 5.48163C189.378 4.30096 188.524 3.65563 187.627 3.65563C186.73 3.65563 185.862 4.28996 185.862 5.48163C185.862 6.67329 186.701 7.30763 187.627 7.30763C188.554 7.30763 189.378 6.66229 189.378 5.48163Z" fill="url(#paint4_linear_295_9)"/>
<path d="M191.952 0H192.885C193.076 0 193.233 0.154 193.233 0.348333V1.089C193.233 1.27967 193.079 1.43733 192.885 1.43733H191.952C191.761 1.43733 191.604 1.27967 191.604 1.089V0.348333C191.604 0.157667 191.758 0 191.952 0ZM191.952 2.31733H192.885C193.076 2.31733 193.233 2.47133 193.233 2.66567V8.30133C193.233 8.492 193.079 8.64967 192.885 8.64967H191.952C191.761 8.64967 191.604 8.492 191.604 8.30133V2.662C191.604 2.47133 191.758 2.31367 191.952 2.31367V2.31733Z" fill="url(#paint5_linear_295_9)"/>
<path d="M196.565 6.21133L195.774 7.08767V8.29767C195.774 8.48833 195.621 8.646 195.427 8.646H194.493C194.302 8.646 194.145 8.48833 194.145 8.29767V0.348333C194.145 0.157667 194.302 0 194.493 0H195.427C195.617 0 195.774 0.154 195.774 0.348333V5.005L198.041 2.431C198.107 2.354 198.202 2.31367 198.301 2.31367H199.308C199.498 2.31367 199.656 2.47133 199.656 2.662C199.656 2.74633 199.623 2.83067 199.568 2.893L197.576 5.10033L199.927 8.08133C200.044 8.23167 200.018 8.45167 199.868 8.569C199.806 8.61667 199.733 8.64233 199.652 8.64233H198.711C198.605 8.64233 198.506 8.59467 198.44 8.514L196.565 6.20767V6.21133Z" fill="url(#paint6_linear_295_9)"/>
<path d="M161.34 6.87871C160.934 7.21971 160.417 7.40305 159.886 7.40305C159.213 7.40305 158.825 7.28571 158.444 6.91538C158.341 6.81638 158.338 6.65138 158.436 6.54871C158.436 6.54871 158.44 6.54505 158.444 6.54138L161.186 3.92338C161.344 3.77305 161.355 3.52738 161.212 3.36605C160.648 2.72438 159.857 2.22205 158.759 2.22205C156.983 2.22205 155.544 3.66671 155.544 5.44505C155.544 5.65771 155.566 5.87038 155.606 6.08305L156.089 8.35638C156.119 8.49571 156.254 8.58371 156.393 8.55438C156.437 8.54338 156.481 8.52138 156.514 8.49205L156.939 8.09971C158.403 9.10438 160.403 8.73405 161.41 7.26738C161.457 7.19771 161.501 7.12438 161.545 7.05105C161.582 6.98505 161.56 6.90438 161.494 6.86405C161.446 6.83471 161.384 6.84205 161.34 6.87871ZM157.576 5.70905C157.14 5.18471 157.21 4.40738 157.73 3.97105C158.041 3.71071 158.462 3.61905 158.854 3.72905C158.942 3.75471 158.993 3.84638 158.967 3.93438C158.964 3.94905 158.956 3.96371 158.945 3.97838L157.84 5.69071C157.788 5.76771 157.686 5.78971 157.609 5.74205C157.594 5.73471 157.583 5.72005 157.572 5.70905H157.576Z" fill="url(#paint7_linear_295_9)"/>
<path fill-rule="evenodd" clip-rule="evenodd" d="M47.5027 54.395C47.2208 54.7727 46.7704 55 46.2981 55L21.7246 54.802C9.52765 53.24 0 42.6763 0 30.1143C0 23.2577 2.73526 16.8667 7.70414 12.111C8.7294 11.132 9.83523 10.2373 11.0106 9.44165C13.1088 8.02632 15.4229 6.93365 17.8506 6.22232C20.498 5.44865 23.2735 5.12598 26.0308 5.25432C38.5207 5.83732 48.6672 15.6823 49.6265 28.1527C50.0476 33.6306 48.7184 38.9327 45.7818 43.5123H52.5925C53.1637 43.5123 53.6763 43.8313 53.9326 44.341C54.1889 44.8507 54.1377 45.452 53.7971 45.9103L47.5027 54.395ZM44.372 51.337C45.1959 51.183 45.8733 50.523 46.0454 49.698H46.0417C46.331 48.3157 45.2838 47.0983 43.9546 47.0983C43.2113 47.0983 42.5558 47.4797 42.175 48.0553C42.0945 48.1727 41.97 48.2533 41.8272 48.2533H33.5115H24.8883H24.848C24.4929 48.2533 24.145 48.2387 23.7971 48.2203C23.8008 48.2167 23.8045 48.2093 23.8045 48.2093C14.3025 47.6667 6.74112 39.7577 6.74112 30.1107C6.74112 19.657 15.6207 11.242 26.2212 12.0303C35.13 12.6903 42.2995 19.9247 42.911 28.8457C43.2076 33.1907 41.9627 37.2387 39.6704 40.502C39.5789 40.6303 39.4251 40.6963 39.2677 40.6853C39.0553 40.6707 38.8356 40.6853 38.6086 40.755C37.4222 41.1107 36.6935 42.4013 37.1256 43.5637C37.4698 44.495 38.4511 45.122 39.5386 44.9167C40.3515 44.7663 41.0179 44.1247 41.2047 43.3217C41.3036 42.9 41.2743 42.4967 41.1498 42.1337C41.1616 42.0566 41.1734 41.987 41.1853 41.9174C41.1954 41.8578 41.2055 41.7983 41.2157 41.734C41.2607 41.6731 41.3029 41.6109 41.3449 41.549C41.3713 41.5102 41.3976 41.4715 41.4244 41.4333C41.4464 41.4021 41.4674 41.371 41.4885 41.3398C41.5095 41.3086 41.5306 41.2775 41.5525 41.2463C41.6384 41.1234 41.7192 40.9954 41.7991 40.8687C41.8146 40.8442 41.83 40.8197 41.8455 40.7953C41.8572 40.7767 41.8692 40.7579 41.8813 40.7389C41.9145 40.6866 41.9487 40.6328 41.981 40.579C42.0688 40.4323 42.1567 40.2857 42.2409 40.139C42.2885 40.0584 42.3361 39.9741 42.3836 39.8899L42.3837 39.8897C42.4643 39.7503 42.5412 39.611 42.6144 39.468L42.6148 39.4674C42.6659 39.3722 42.7171 39.2771 42.7646 39.182C42.8305 39.05 42.8964 38.9143 42.9623 38.7787C43.0135 38.6723 43.0648 38.5623 43.1161 38.4523C43.1357 38.4079 43.1557 38.363 43.1759 38.3178C43.2123 38.2361 43.2492 38.1536 43.2845 38.071C43.3394 37.9501 43.3906 37.8256 43.4418 37.701L43.442 37.7007C43.4744 37.6265 43.5039 37.5508 43.5332 37.4755C43.5503 37.4318 43.5673 37.3881 43.5848 37.345C43.6397 37.2057 43.691 37.0663 43.7422 36.927C43.7605 36.8738 43.7797 36.8198 43.799 36.7657C43.8182 36.7116 43.8374 36.6575 43.8557 36.6043C43.8923 36.4992 43.9257 36.3941 43.9591 36.289C43.9757 36.2365 43.9924 36.1839 44.0095 36.1313L44.0974 35.8453C44.1523 35.6693 44.1999 35.4933 44.2475 35.3137C44.2695 35.2367 44.2915 35.156 44.3134 35.0753C44.3647 34.8773 44.4123 34.6757 44.4562 34.474C44.4655 34.4216 44.4773 34.3719 44.4895 34.3204C44.4918 34.3105 44.4942 34.3006 44.4965 34.2907C44.5441 34.0633 44.5881 33.8287 44.6283 33.5977C44.6315 33.5663 44.6373 33.5376 44.6435 33.507C44.6445 33.5018 44.6456 33.4966 44.6466 33.4913C44.8334 32.395 44.9323 31.2657 44.9323 30.1143C44.9323 18.513 35.0751 9.17765 23.3101 10.0613C13.4932 10.7983 5.56573 18.7367 4.82973 28.567C3.94727 40.3516 13.2735 50.2223 24.8554 50.2223C24.9176 50.2223 24.9799 50.2214 25.0421 50.2205C25.1044 50.2196 25.1666 50.2187 25.2289 50.2187H41.8162C41.9553 50.2187 42.0945 50.2847 42.1714 50.402C42.6181 51.095 43.4566 51.5093 44.372 51.337ZM15.4266 39.5487C18.29 42.4197 22.2556 43.8203 26.3017 43.3877C32.4863 42.7313 37.4515 37.7593 38.1069 31.5663C38.5353 27.5146 37.1366 23.5436 34.2732 20.6763C31.7466 18.1463 28.3706 16.7603 24.8334 16.7603C24.3574 16.7603 23.8777 16.786 23.398 16.8373C17.2135 17.4937 12.2483 22.4657 11.5928 28.6587C11.1644 32.7103 12.5632 36.6813 15.4266 39.5487ZM133.845 11.7956H127.964V42.9183H133.845V11.7956ZM81.3439 24.4566H84.1158H84.1194V35.6876C84.1194 41.0299 87.1 42.9219 91.5526 42.9219H95.2472V37.9573H92.5156C90.6665 37.9573 90.0367 37.2863 90.0367 35.7279V24.4566H95.2435V19.6203H90.0367V13.8563H84.1158V19.6203H81.3439V24.4566ZM71.5123 22.9423C70.1282 21.01 67.565 19.2426 63.8265 19.2426L63.8228 19.239C57.9019 19.239 53.1967 23.9066 53.1967 31.185C53.1967 38.4633 57.9019 43.2996 63.7825 43.2996C67.4808 43.2996 70.1245 41.536 71.5123 39.5156V42.922H77.4332V19.6203H71.5123V22.9423ZM59.2054 31.1886C59.2054 26.7703 62.1897 24.4163 65.3387 24.4163C68.572 24.4163 71.5123 26.8546 71.5123 31.273C71.5123 35.6913 68.4914 38.1296 65.3387 38.1296C62.186 38.1296 59.2054 35.607 59.2054 31.1886ZM108.601 19.2426C112.34 19.2426 114.903 21.01 116.287 22.9423V19.6203H122.208V42.922H116.287V39.5156C114.899 41.536 112.256 43.2996 108.557 43.2996C102.677 43.2996 97.9714 38.4633 97.9714 31.185C97.9714 23.9066 102.677 19.239 108.598 19.239L108.601 19.2426ZM110.114 24.4163C106.964 24.4163 103.98 26.7703 103.98 31.1886C103.98 35.607 106.961 38.1296 110.114 38.1296C113.266 38.1296 116.287 35.6913 116.287 31.273C116.287 26.8546 113.347 24.4163 110.114 24.4163ZM155.646 19.6202H161.904L147.499 53.9402H141.241L146.283 42.3316L136.957 19.6202H143.552L149.557 35.8966L155.646 19.6202ZM163.793 35.5593C164.046 39.8929 168.121 43.2989 173.956 43.2996C179.627 43.299 183.112 40.2705 183.112 36.2743C183.016 31.2739 178.55 30.1112 174.868 29.1524C172.264 28.4744 170.051 27.8983 170.051 26.1396C170.051 24.794 171.186 23.9103 173.369 23.9103C175.679 23.9103 177.107 25.1313 177.276 26.939H182.904C182.567 22.3116 179.29 19.2426 173.537 19.2426C167.785 19.2426 164.339 22.3556 164.339 26.224C164.339 31.2494 168.895 32.3974 172.643 33.3415C175.261 34.0011 177.484 34.5613 177.484 36.2743C177.484 37.62 176.265 38.6723 173.914 38.6723C171.563 38.6723 169.923 37.3266 169.714 35.5593H163.793ZM188.869 24.4566H186.097V19.6203H188.869V13.8563H194.789V19.6203H199.996V24.4566H194.789V35.7279C194.789 37.2863 195.419 37.9573 197.268 37.9573H200V42.9219H196.305C191.853 42.9219 188.872 41.0299 188.872 35.6876V24.4566H188.869Z" fill="url(#paint8_linear_295_9)"/>
</g>
<defs>
<linearGradient id="paint0_linear_295_9" x1="155.602" y1="7.4983" x2="199.115" y2="-1.77611" gradientUnits="userSpaceOnUse">
<stop stop-color="#64D89F"/>
<stop offset="1" stop-color="#00B2E2"/>
</linearGradient>
<linearGradient id="paint1_linear_295_9" x1="155.687" y1="7.89432" x2="199.2" y2="-1.38374" gradientUnits="userSpaceOnUse">
<stop stop-color="#64D89F"/>
<stop offset="1" stop-color="#00B2E2"/>
</linearGradient>
<linearGradient id="paint2_linear_295_9" x1="155.983" y1="9.28396" x2="199.496" y2="0.00952592" gradientUnits="userSpaceOnUse">
<stop stop-color="#64D89F"/>
<stop offset="1" stop-color="#00B2E2"/>
</linearGradient>
<linearGradient id="paint3_linear_295_9" x1="156.272" y1="10.648" x2="199.785" y2="1.36989" gradientUnits="userSpaceOnUse">
<stop stop-color="#64D89F"/>
<stop offset="1" stop-color="#00B2E2"/>
</linearGradient>
<linearGradient id="paint4_linear_295_9" x1="156.712" y1="12.7013" x2="200.225" y2="3.42325" gradientUnits="userSpaceOnUse">
<stop stop-color="#64D89F"/>
<stop offset="1" stop-color="#00B2E2"/>
</linearGradient>
<linearGradient id="paint5_linear_295_9" x1="156.558" y1="11.99" x2="200.071" y2="2.71213" gradientUnits="userSpaceOnUse">
<stop stop-color="#64D89F"/>
<stop offset="1" stop-color="#00B2E2"/>
</linearGradient>
<linearGradient id="paint6_linear_295_9" x1="156.763" y1="12.9397" x2="200.276" y2="3.66162" gradientUnits="userSpaceOnUse">
<stop stop-color="#64D89F"/>
<stop offset="1" stop-color="#00B2E2"/>
</linearGradient>
<linearGradient id="paint7_linear_295_9" x1="155.719" y1="6.09038" x2="197.632" y2="-2.84756" gradientUnits="userSpaceOnUse">
<stop stop-color="#64D89F"/>
<stop offset="1" stop-color="#00B2E2"/>
</linearGradient>
<linearGradient id="paint8_linear_295_9" x1="0" y1="30.0409" x2="200" y2="30.0409" gradientUnits="userSpaceOnUse">
<stop stop-color="#009688"/>
<stop offset="1" stop-color="#00E3CC"/>
</linearGradient>
<clipPath id="clip0_295_9">
<rect width="200" height="55" fill="white"/>
</clipPath>
</defs>
</svg>
