<svg width="104" height="104" viewBox="0 0 104 104" fill="none" xmlns="http://www.w3.org/2000/svg">
<path d="M95.94 32.9874L53.69 6.98742C53.1959 6.70217 52.6355 6.552 52.065 6.552C51.4945 6.552 50.9341 6.70217 50.44 6.98742L8.19 32.9874C7.69139 33.26 7.27295 33.6585 6.97641 34.1432C6.67988 34.6279 6.51561 35.1819 6.5 35.7499V94.2499C6.5 95.1119 6.84241 95.9385 7.4519 96.548C8.0614 97.1575 8.88805 97.4999 9.75 97.4999H94.25C95.112 97.4999 95.9386 97.1575 96.5481 96.548C97.1576 95.9385 97.5 95.1119 97.5 94.2499V35.7499C97.4977 35.1945 97.3531 34.649 97.08 34.1654C96.8069 33.6818 96.4144 33.2762 95.94 32.9874Z" fill="#44595A"/>
<path d="M95.94 32.9875L53.69 6.9875C53.1822 6.67275 52.5974 6.50407 52 6.5V97.5H94.25C95.112 97.5 95.9386 97.1576 96.5481 96.5481C97.1576 95.9386 97.5 95.112 97.5 94.25V35.75C97.4977 35.1946 97.3531 34.6491 97.08 34.1655C96.8069 33.6819 96.4144 33.2763 95.94 32.9875Z" fill="#1E2E2F"/>
<path d="M95.9398 32.9874L53.6898 6.98742C53.1958 6.70217 52.6353 6.552 52.0648 6.552C51.4943 6.552 50.9339 6.70217 50.4398 6.98742L8.18981 32.9874C7.7195 33.2789 7.3314 33.6856 7.06226 34.169C6.79312 34.6525 6.65186 35.1966 6.65186 35.7499C6.65186 36.3032 6.79312 36.8474 7.06226 37.3308C7.3314 37.8142 7.7195 38.221 8.18981 38.5124L50.4398 64.5124C50.9339 64.7977 51.4943 64.9478 52.0648 64.9478C52.6353 64.9478 53.1958 64.7977 53.6898 64.5124L95.9398 38.5124C96.4101 38.221 96.7982 37.8142 97.0674 37.3308C97.3365 36.8474 97.4778 36.3032 97.4778 35.7499C97.4778 35.1966 97.3365 34.6525 97.0674 34.169C96.7982 33.6856 96.4101 33.2789 95.9398 32.9874V32.9874Z" fill="#314546"/>
<path d="M95.94 32.9875L53.69 6.9875C53.1822 6.67275 52.5974 6.50407 52 6.5V65C52.5974 64.9959 53.1822 64.8272 53.69 64.5125L95.94 38.5125C96.4103 38.221 96.7984 37.8143 97.0675 37.3309C97.3367 36.8474 97.478 36.3033 97.478 35.75C97.478 35.1967 97.3367 34.6526 97.0675 34.1691C96.7984 33.6857 96.4103 33.279 95.94 32.9875V32.9875Z" fill="#314546"/>
</svg>
